#!OML:ASF H:\Terrain\Patient Classification 1\Terrain2\Thursday\justin.ASF
:FULLY-SPECIFIED
:DEGREES
383
root 8.50171 17.8706 11.7272 -0.166349 1.71576 -8.81624
lowerback 8.14023 2.02304 10.2166
upperback 1.43777 3.69689 3.9103
thorax -2.68224 1.76217 -2.00242
lowerneck -15.5826 -4.1945 -10.3044
upperneck 18.9367 -4.31429 5.06584
head 8.84263 -2.24164 2.89484
rclavicle 1.20265e-014 3.33958e-014
rhumerus -26.0771 -10.0453 -73.5214
rradius 26.9113
rwrist -4.92341
rhand -19.7143 7.82279
rfingers 7.12502
rthumb 6.61565 -22.0539
lclavicle 1.20265e-014 3.33958e-014
lhumerus -39.5815 7.06947 80.2346
lradius 38.7423
lwrist 6.33451
lhand -16.8703 22.1084
lfingers 7.12502
lthumb 9.36047 51.8806
rfemur 7.82249 -8.86536 33.546
rtibia 17.7932
rfoot -12.9733 6.45719
rtoes -19.1354
lfemur -42.6419 9.11586 -8.23327
ltibia 78.2053
lfoot -19.9114 -12.8617
ltoes -9.65541
384
root 8.51382 17.849 11.8311 0.11065 1.36752 -8.92808
lowerback 8.11751 2.14208 10.4973
upperback 1.34262 3.88143 3.85552
thorax -2.72738 1.84557 -2.22939
lowerneck -15.6356 -4.20635 -10.3164
upperneck 19.1537 -4.34743 5.15703
head 8.93145 -2.25074 2.92551
rclavicle 1.59028e-015 -1.66979e-014
rhumerus -25.5907 -10.6736 -73.6276
rradius 26.7415
rwrist -6.17041
rhand -20.9082 10.2869
rfingers 7.12502
rthumb 5.46302 -19.6226
lclavicle 1.59028e-015 -1.66979e-014
lhumerus -39.6895 7.19921 80.0864
lradius 38.3253
lwrist 6.00019
lhand -16.3899 22.0183
lfingers 7.12502
lthumb 9.82398 51.7691
rfemur 7.82122 -8.47382 33.6525
rtibia 18.0187
rfoot -12.938 6.32732
rtoes -20.1301
lfemur -42.2837 9.14142 -8.73303
ltibia 73.5834
lfoot -19.9483 -10.5596
ltoes -14.6022
385
root 8.52735 17.8386 11.9402 0.499789 1.09232 -9.06259
lowerback 7.97857 2.21673 10.7241
upperback 1.19632 3.99369 3.87464
thorax -2.77736 1.89198 -2.33909
lowerneck -15.4215 -4.12544 -10.3701
upperneck 19.0078 -4.24917 5.19107
head 8.83622 -2.20601 2.95984
rclavicle -2.68359e-014 -3.65764e-014
rhumerus -25.168 -11.0886 -73.6482
rradius 26.6697
rwrist -7.30449
rhand -20.4416 10.4365
rfingers 7.12502
rthumb 5.91344 -19.461
lclavicle -2.68359e-014 -3.65764e-014
lhumerus -39.9156 7.39094 80.058
lradius 38.0328
lwrist 5.86007
lhand -15.9835 22.0802
lfingers 7.12502
lthumb 10.2161 51.8121
rfemur 7.79063 -8.27417 33.7365
rtibia 18.0535
rfoot -12.8803 6.39604
rtoes -20.3852
lfemur -41.8593 8.92776 -9.08549
ltibia 68.6913
lfoot -19.1838 -8.58428
ltoes -15.6221
386
root 8.54135 17.8261 12.0562 0.816663 0.789994 -9.05915
lowerback 7.69589 2.2371 10.7435
upperback 1.18897 3.98225 3.90266
thorax -2.62882 1.89299 -2.30469
lowerneck -15.3091 -3.98557 -10.2895
upperneck 18.7763 -4.04916 5.03976
head 8.71488 -2.12027 2.91896
rclavicle 9.54166e-015 -7.95139e-016
rhumerus -24.6509 -12.737 -73.0667
rradius 26.6429
rwrist -4.83277
rhand -16.6204 10.5184
rfingers 7.12502
rthumb 9.60164 -19.2428
lclavicle 9.54166e-015 -7.95139e-016
lhumerus -40.1888 7.81441 80.0387
lradius 37.8491
lwrist 5.68588
lhand -15.7935 22.2855
lfingers 7.12502
lthumb 10.3993 52.0084
rfemur 8.00667 -7.9748 33.6719
rtibia 17.8348
rfoot -12.7406 6.5671
rtoes -20.329
lfemur -41.1323 8.85092 -9.56879
ltibia 63.5759
lfoot -18.6374 -6.60437
ltoes -18.9127
387
root 8.55714 17.813 12.1756 1.01016 0.505697 -8.75869
lowerback 7.52788 2.22484 10.5054
upperback 1.18862 3.91961 3.82009
thorax -2.55219 1.86759 -2.24751
lowerneck -15.3055 -3.84762 -10.0934
upperneck 18.7963 -3.86407 4.83934
head 8.69722 -2.04032 2.84146
rclavicle -6.39093e-014 -4.77083e-014
rhumerus -24.2209 -12.7288 -73.374
rradius 27.4069
rwrist -5.6577
rhand -17.7317 6.37565
rfingers 7.12502
rthumb 8.52928 -23.4321
lclavicle -6.39093e-014 -4.77083e-014
lhumerus -40.4674 8.42084 79.8229
lradius 37.439
lwrist 5.14359
lhand -15.6323 22.3581
lfingers 7.12502
lthumb 10.5549 52.0731
rfemur 8.48736 -7.6597 33.2681
rtibia 17.416
rfoot -12.4503 6.7544
rtoes -19.4682
lfemur -40.0618 8.75232 -10.3539
ltibia 58.2789
lfoot -18.1273 -4.82585
ltoes -22.9833
388
root 8.57282 17.8154 12.2974 1.26623 0.31043 -8.3692
lowerback 7.4541 2.17481 10.1655
upperback 1.0507 3.82568 3.71863
thorax -2.68177 1.81428 -2.16099
lowerneck -15.353 -3.69046 -9.80114
upperneck 18.9735 -3.64077 4.48767
head 8.73572 -1.95288 2.70185
rclavicle -1.09332e-014 -1.27222e-014
rhumerus -24.0119 -13.4618 -73.29
rradius 27.8861
rwrist -3.42161
rhand -19.2052 0.845803
rfingers 7.12502
rthumb 7.10712 -29.0149
lclavicle -1.09332e-014 -1.27222e-014
lhumerus -40.9143 8.8745 79.6194
lradius 37.0516
lwrist 4.8268
lhand -15.5524 21.8612
lfingers 7.12502
lthumb 10.632 51.5723
rfemur 8.9363 -7.45387 32.7504
rtibia 16.9085
rfoot -12.2003 6.78774
rtoes -19.6297
lfemur -38.9542 8.28942 -11.0868
ltibia 52.9347
lfoot -17.3498 -3.71832
ltoes -23.5548
389
root 8.5836 17.8222 12.4197 1.68041 0.0624417 -8.15742
lowerback 7.24019 2.1786 9.97113
upperback 0.9019 3.79753 3.6521
thorax -2.72937 1.79597 -2.1154
lowerneck -15.5504 -3.59382 -9.74825
upperneck 19.1941 -3.49614 4.45333
head 8.83376 -1.88596 2.69986
rclavicle -9.44227e-015 -3.97569e-015
rhumerus -23.8046 -11.3158 -74.395
rradius 28.3819
rwrist -9.39216
rhand -22.3799 4.38664
rfingers 7.12502
rthumb 4.04189 -25.5548
lclavicle -9.44227e-015 -3.97569e-015
lhumerus -41.2421 9.0647 79.5288
lradius 36.5197
lwrist 4.76231
lhand -15.8057 20.016
lfingers 7.12502
lthumb 10.3876 49.7394
rfemur 9.2595 -6.97514 32.5289
rtibia 16.2773
rfoot -11.8911 6.57927
rtoes -20.5321
lfemur -38.0218 7.75421 -11.4927
ltibia 47.7113
lfoot -16.6706 -2.85625
ltoes -23.9914
390
root 8.59081 17.8202 12.5448 1.96854 -0.343839 -7.97127
lowerback 7.0722 2.2182 9.72157
upperback 0.865859 3.81026 3.62089
thorax -2.68547 1.8058 -2.00522
lowerneck -15.7201 -3.52124 -9.87551
upperneck 19.2882 -3.38992 4.64361
head 8.8938 -1.8252 2.79958
rclavicle 3.23025e-014 2.8625e-014
rhumerus -23.323 -10.5261 -74.8563
rradius 28.6175
rwrist -11.1179
rhand -21.5517 9.05876
rfingers 7.12502
rthumb 4.84168 -20.8659
lclavicle 3.23025e-014 2.8625e-014
lhumerus -41.4221 9.4792 79.3966
lradius 35.8076
lwrist 4.44243
lhand -16.1331 19.6753
lfingers 7.12502
lthumb 10.0718 49.4143
rfemur 9.80602 -6.1514 32.418
rtibia 15.5124
rfoot -11.4136 6.22742
rtoes -21.0246
lfemur -37.019 7.59724 -11.8536
ltibia 42.7628
lfoot -15.97 -2.23737
ltoes -26.3293
391
root 8.60055 17.804 12.6758 2.11656 -0.747232 -8.13719
lowerback 6.95447 2.20607 9.80829
upperback 0.867058 3.78659 3.691
thorax -2.61999 1.79605 -1.97192
lowerneck -15.7701 -3.38566 -9.7098
upperneck 19.2751 -3.20145 4.47466
head 8.87749 -1.74187 2.73744
rclavicle 3.37934e-014 1.43125e-014
rhumerus -22.862 -11.0664 -74.8159
rradius 28.8226
rwrist -9.10948
rhand -21.015 10.65
rfingers 7.12502
rthumb 5.35985 -19.2622
lclavicle 3.37934e-014 1.43125e-014
lhumerus -41.7379 10.1671 79.1254
lradius 35.2549
lwrist 3.72979
lhand -16.0444 21.4277
lfingers 7.12502
lthumb 10.1574 51.1625
rfemur 10.5455 -5.34435 32.6764
rtibia 14.7243
rfoot -10.8005 5.89141
rtoes -20.4958
lfemur -36.0626 7.68223 -11.8123
ltibia 38.2433
lfoot -15.0662 -2.71071
ltoes -26.2813
392
root 8.61821 17.7917 12.8102 2.59605 -1.06766 -8.28385
lowerback 6.51773 2.22012 10.0377
upperback 0.732418 3.77303 3.64469
thorax -2.50002 1.7883 -2.12553
lowerneck -15.9962 -3.23561 -9.40067
upperneck 19.499 -3.0228 4.33681
head 8.97334 -1.65115 2.66249
rclavicle 1.31198e-014 -1.11319e-014
rhumerus -22.756 -11.4328 -74.9672
rradius 29.4003
rwrist -7.98477
rhand -20.4517 11.1312
rfingers 7.12502
rthumb 5.90372 -18.7666
lclavicle 1.31198e-014 -1.11319e-014
lhumerus -42.0065 10.5943 78.7666
lradius 34.6028
lwrist 3.14572
lhand -15.8859 21.7378
lfingers 7.12502
lthumb 10.3102 51.4651
rfemur 10.9802 -4.98214 32.756
rtibia 13.843
rfoot -10.1573 6.04644
rtoes -19.7969
lfemur -35.6356 7.39149 -11.6992
ltibia 34.3138
lfoot -14.0257 -3.7548
ltoes -22.3377
